<svg width="22" height="23" viewBox="0 0 22 23" fill="none" xmlns="http://www.w3.org/2000/svg">
<path d="M10.9987 4.53351C7.43368 4.53351 4.53334 7.4339 4.53334 10.9989C4.53334 14.5639 7.43368 17.4643 10.9987 17.4643C14.5638 17.4643 17.4641 14.5639 17.4641 10.9989C17.4641 7.43385 14.5638 4.53351 10.9987 4.53351ZM11.4934 13.1784V13.8439H10.648V13.2083C10.0484 13.1724 9.46673 13.0105 9.10699 12.7886L9.56268 11.7573C9.95839 11.9911 10.4861 12.1411 10.9478 12.1411C11.3495 12.1411 11.4934 12.0571 11.4934 11.9132C11.4934 11.3856 9.17295 11.8113 9.17295 10.2463C9.17295 9.56874 9.66461 8.99914 10.648 8.86125V8.20769H11.4934V8.84926C11.9371 8.89124 12.3688 9.00516 12.7106 9.19706L12.2848 10.2223C11.8711 10.0125 11.4814 9.91056 11.1156 9.91056C10.7019 9.91056 10.57 10.0304 10.57 10.1744C10.57 10.6781 12.8904 10.2583 12.8904 11.8053C12.8904 12.4528 12.4228 13.0165 11.4934 13.1784Z" fill="#171FE5"/>
<path d="M21.9354 9.8075L20.6532 9.94921C20.893 12.1183 20.3795 14.3356 19.2074 16.1929C18.019 18.0757 16.1996 19.5029 14.0841 20.2115C13.0713 20.5507 12.031 20.7132 11.0006 20.7131C8.02618 20.7129 5.13955 19.358 3.27412 16.9898H4.55134V15.6998H1.1021V19.3079H2.39213V17.9492C3.62226 19.447 5.25251 20.6149 7.10346 21.3039C8.35417 21.7696 9.67354 22.003 10.9912 22.003C12.1772 22.003 13.362 21.8138 14.4938 21.4347C16.8903 20.632 18.9517 19.0149 20.2982 16.8814C21.6257 14.7781 22.2072 12.2659 21.9354 9.8075Z" fill="#171FE5"/>
<path d="M2.74792 5.89079C3.93615 3.97096 5.77176 2.51799 7.91658 1.7995C10.0053 1.09992 12.2025 1.12213 14.271 1.86396C15.8862 2.44327 17.3263 3.44897 18.4248 4.74827L17.1954 4.74785L17.195 6.03787L20.6825 6.03903V2.59225H19.3924V3.89529C18.1502 2.43373 16.5265 1.30239 14.7065 0.649644C12.3627 -0.190879 9.87306 -0.216274 7.50691 0.576295C5.07712 1.39018 2.99749 3.03646 1.65104 5.21183C0.322131 7.35892 -0.232518 9.91293 0.0892366 12.4034L1.36861 12.2381C1.08471 10.0407 1.57456 7.78655 2.74792 5.89079Z" fill="#171FE5"/>
</svg>
