<svg width="10" height="10" viewBox="0 0 10 10" fill="none" xmlns="http://www.w3.org/2000/svg">
<g clip-path="url(#clip0_1_225)">
<path d="M8.33333 0H1.66667C1.22464 0 0.800716 0.175595 0.488155 0.488155C0.175595 0.800716 0 1.22464 0 1.66667L0 8.33333C0 8.77536 0.175595 9.19928 0.488155 9.51184C0.800716 9.8244 1.22464 10 1.66667 10H8.33333C8.77536 10 9.19928 9.8244 9.51184 9.51184C9.8244 9.19928 10 8.77536 10 8.33333V1.66667C10 1.22464 9.8244 0.800716 9.51184 0.488155C9.19928 0.175595 8.77536 0 8.33333 0V0ZM9.16667 8.33333C9.16667 8.55435 9.07887 8.76631 8.92259 8.92259C8.76631 9.07887 8.55435 9.16667 8.33333 9.16667H1.66667C1.44565 9.16667 1.23369 9.07887 1.07741 8.92259C0.921131 8.76631 0.833333 8.55435 0.833333 8.33333V1.66667C0.833333 1.44565 0.921131 1.23369 1.07741 1.07741C1.23369 0.921131 1.44565 0.833333 1.66667 0.833333H8.33333C8.55435 0.833333 8.76631 0.921131 8.92259 1.07741C9.07887 1.23369 9.16667 1.44565 9.16667 1.66667V8.33333Z" fill="white"/>
<path d="M4.99994 2.5C4.50549 2.5 4.02214 2.64662 3.61101 2.92133C3.19989 3.19603 2.87946 3.58648 2.69024 4.04329C2.50102 4.50011 2.45151 5.00277 2.54798 5.48773C2.64444 5.97268 2.88254 6.41814 3.23217 6.76777C3.5818 7.1174 4.02726 7.3555 4.51221 7.45196C4.99717 7.54843 5.49983 7.49892 5.95665 7.3097C6.41346 7.12048 6.80391 6.80005 7.07861 6.38893C7.35332 5.9778 7.49994 5.49445 7.49994 5C7.49994 4.33696 7.23655 3.70107 6.76771 3.23223C6.29887 2.76339 5.66298 2.5 4.99994 2.5ZM4.99994 6.66667C4.67031 6.66667 4.34807 6.56892 4.07399 6.38578C3.79991 6.20265 3.58629 5.94235 3.46014 5.63781C3.33399 5.33326 3.30099 4.99815 3.3653 4.67485C3.42961 4.35155 3.58834 4.05458 3.82143 3.82149C4.05452 3.5884 4.35149 3.42967 4.67479 3.36536C4.99809 3.30105 5.3332 3.33405 5.63775 3.4602C5.94229 3.58635 6.20259 3.79997 6.38572 4.07405C6.56886 4.34813 6.66661 4.67036 6.66661 5C6.66661 5.44203 6.49101 5.86595 6.17845 6.17851C5.86589 6.49107 5.44197 6.66667 4.99994 6.66667Z" fill="white"/>
<path d="M7.70834 2.91675C8.05352 2.91675 8.33334 2.63693 8.33334 2.29175C8.33334 1.94657 8.05352 1.66675 7.70834 1.66675C7.36317 1.66675 7.08334 1.94657 7.08334 2.29175C7.08334 2.63693 7.36317 2.91675 7.70834 2.91675Z" fill="white"/>
</g>
<defs>
<clipPath id="clip0_1_225">
<rect width="10" height="10" fill="white"/>
</clipPath>
</defs>
</svg>
