<svg width="50" height="50" viewBox="0 0 50 50" fill="none" xmlns="http://www.w3.org/2000/svg">
<rect opacity="0.1" width="50" height="50" rx="10" fill="#171FE5"/>
<path d="M24.9987 18.5335C21.4337 18.5335 18.5333 21.4339 18.5333 24.9989C18.5333 28.5639 21.4337 31.4643 24.9987 31.4643C28.5638 31.4643 31.4641 28.5639 31.4641 24.9989C31.4641 21.4339 28.5638 18.5335 24.9987 18.5335ZM25.4934 27.1784V27.8439H24.648V27.2083C24.0484 27.1724 23.4667 27.0105 23.107 26.7886L23.5627 25.7573C23.9584 25.9911 24.4861 26.1411 24.9478 26.1411C25.3495 26.1411 25.4934 26.0571 25.4934 25.9132C25.4934 25.3856 23.173 25.8113 23.173 24.2463C23.173 23.5687 23.6646 22.9991 24.648 22.8613V22.2077H25.4934V22.8493C25.9371 22.8912 26.3688 23.0052 26.7106 23.1971L26.2848 24.2223C25.8711 24.0125 25.4814 23.9106 25.1156 23.9106C24.7019 23.9106 24.57 24.0304 24.57 24.1744C24.57 24.6781 26.8904 24.2583 26.8904 25.8053C26.8904 26.4528 26.4228 27.0165 25.4934 27.1784Z" fill="#171FE5"/>
<path d="M35.9354 23.8075L34.6532 23.9492C34.893 26.1183 34.3795 28.3356 33.2074 30.1929C32.019 32.0757 30.1996 33.5029 28.0841 34.2115C27.0713 34.5507 26.031 34.7132 25.0006 34.7131C22.0262 34.7129 19.1395 33.358 17.2741 30.9898H18.5513V29.6998H15.1021V33.3079H16.3921V31.9492C17.6223 33.447 19.2525 34.6149 21.1035 35.3039C22.3542 35.7696 23.6735 36.003 24.9912 36.003C26.1772 36.003 27.362 35.8138 28.4938 35.4347C30.8903 34.632 32.9517 33.0149 34.2982 30.8814C35.6257 28.7781 36.2072 26.2659 35.9354 23.8075Z" fill="#171FE5"/>
<path d="M16.7479 19.8908C17.9362 17.971 19.7718 16.518 21.9166 15.7995C24.0053 15.0999 26.2025 15.1221 28.271 15.864C29.8862 16.4433 31.3263 17.449 32.4248 18.7483L31.1954 18.7478L31.195 20.0379L34.6825 20.039V16.5922H33.3924V17.8953C32.1502 16.4337 30.5265 15.3024 28.7065 14.6496C26.3627 13.8091 23.8731 13.7837 21.5069 14.5763C19.0771 15.3902 16.9975 17.0365 15.651 19.2118C14.3221 21.3589 13.7675 23.9129 14.0892 26.4034L15.3686 26.2381C15.0847 24.0407 15.5746 21.7866 16.7479 19.8908Z" fill="#171FE5"/>
</svg>
