<svg width="41" height="31" viewBox="0 0 41 31" fill="none" xmlns="http://www.w3.org/2000/svg">
<path d="M20.4994 24.4373C18.7958 24.4373 17.395 25.7536 17.2247 27.4133V27.4323C17.2247 27.5277 17.2057 27.6231 17.2057 27.7185C17.2247 29.5308 18.7011 30.9997 20.4994 30.9997C22.3166 30.9997 23.7741 29.5308 23.793 27.7185C23.7741 25.9062 22.3166 24.4373 20.4994 24.4373Z" fill="white"/>
<path d="M35.0376 24.4373C33.8262 24.4373 32.7662 25.1049 32.1983 26.0779C31.9333 26.5548 31.7819 27.108 31.7819 27.6803C31.7819 29.5117 33.2583 30.9997 35.0755 30.9997C36.2112 30.9997 37.2145 30.4274 37.8013 29.5308C38.123 29.0157 38.3313 28.4053 38.3313 27.7376C38.3502 25.9253 36.8737 24.4373 35.0376 24.4373Z" fill="white"/>
<path d="M20.5004 25.0479C19.4972 25.0479 18.6265 25.6011 18.1722 26.4214C18.5697 26.1925 19.024 26.0589 19.5161 26.0589C20.9737 26.0589 22.1851 27.2608 22.204 28.7297C22.204 29.2066 22.0715 29.6454 21.8444 30.0269C22.6394 29.5691 23.1883 28.7106 23.1883 27.7186C23.1694 26.2497 21.958 25.0479 20.5004 25.0479Z" fill="white"/>
<path d="M35.0374 25.0479C34.091 25.0479 33.2013 25.5629 32.7281 26.3642C32.7281 26.3832 32.7092 26.3832 32.7092 26.4023C33.1067 26.1734 33.561 26.0399 34.0342 26.0399C35.5106 26.0399 36.7221 27.2608 36.7221 28.7488C36.7221 29.1875 36.6085 29.6263 36.4003 30.0269C36.7599 29.8171 37.0628 29.55 37.3089 29.2066C37.5928 28.7679 37.7253 28.2719 37.7253 27.7568C37.7253 26.2688 36.5328 25.0479 35.0374 25.0479Z" fill="white"/>
<path d="M38.3878 20.7936H19.7996L14.6888 6.54313C14.3102 5.4939 13.3259 4.80713 12.2281 4.80713H2.61219C1.17359 4.80713 0 5.97082 0 7.43974C0 8.90867 1.17359 10.0724 2.61219 10.0724H10.4109L15.5217 24.3228C15.711 24.857 16.0706 25.2957 16.5249 25.601C17.2821 24.1702 18.7964 23.1973 20.5189 23.1973C22.4118 23.1973 24.0397 24.3801 24.7211 26.0588H30.873C31.5355 24.3801 33.1634 23.1973 35.0752 23.1973C36.9303 23.1973 38.5203 24.3228 39.2207 25.9253C40.2618 25.5819 41.0379 24.5899 41.0379 23.4262C41 21.9764 39.8264 20.7936 38.3878 20.7936Z" fill="white"/>
<path d="M38.388 18.2565C38.388 18.2565 38.2555 18.3328 38.0094 18.4473C37.7633 18.5617 37.3848 18.7334 36.8926 18.9051C36.6465 19.0005 36.3626 19.0768 36.0597 19.1722C35.7569 19.2485 35.4162 19.3439 35.0565 19.4011C34.3372 19.5537 33.4854 19.63 32.5579 19.611C31.6304 19.5919 30.5893 19.4583 29.5293 19.1531C28.4693 18.8479 27.3903 18.371 26.3681 17.7223C25.346 17.0928 24.3806 16.3106 23.5288 15.4331C22.6581 14.5747 21.882 13.6208 21.1627 12.667C20.4434 11.694 19.7998 10.7211 19.1941 9.74819C18.8912 9.27126 18.5884 8.79434 18.3234 8.31742C18.0394 7.85957 17.7555 7.40173 17.4905 6.94388C16.9416 6.06634 16.4115 5.22696 15.8626 4.50203C15.3326 3.75803 14.7837 3.12849 14.2158 2.61342C13.6479 2.09834 13.0801 1.69773 12.5122 1.41157C11.9443 1.12542 11.3954 0.953726 10.9222 0.839264C10.4489 0.743879 10.0514 0.667572 9.78643 0.648495C9.52143 0.629418 9.37 0.610341 9.37 0.610341C9.37 0.610341 9.5025 0.55311 9.7675 0.438649C10.0325 0.343264 10.4111 0.190649 10.9411 0.095264C11.4711 -0.00012057 12.1336 -0.0573513 12.9097 0.0380333C13.6858 0.114341 14.5565 0.381418 15.4272 0.820187C16.298 1.25896 17.1498 1.88849 17.9259 2.61342C18.7209 3.33834 19.4591 4.15865 20.1595 5.03619C20.5191 5.47496 20.8598 5.91373 21.1816 6.37157C21.5223 6.82942 21.8441 7.26819 22.1849 7.74511C22.8474 8.6608 23.491 9.5765 24.1345 10.454C24.7781 11.3316 25.4406 12.19 26.1221 12.9531C26.4628 13.3347 26.8224 13.7162 27.1632 14.0596C27.5228 14.403 27.8825 14.7273 28.2421 15.0325C28.9803 15.643 29.7375 16.139 30.5136 16.5396C31.2897 16.9402 32.0847 17.2454 32.8418 17.4743C33.599 17.7033 34.3372 17.8559 34.9997 17.9513C35.3404 18.0085 35.6433 18.0276 35.9462 18.0848C36.249 18.1039 36.514 18.142 36.7601 18.1611C37.0062 18.1802 37.2333 18.1993 37.4226 18.2183C37.6119 18.2374 37.7823 18.2374 37.9337 18.2374C38.2366 18.2565 38.388 18.2565 38.388 18.2565Z" fill="white"/>
<path d="M35.53 18.6571C35.3407 18.638 35.1325 18.6189 34.9432 18.5808C34.205 18.4854 33.4478 18.3137 32.6907 18.0848C31.8199 17.8368 31.006 17.4934 30.2488 17.1119C29.397 16.654 28.602 16.1199 27.8638 15.5285C27.5231 15.2614 27.1824 14.9371 26.7281 14.5174C26.3684 14.1549 26.0088 13.7734 25.668 13.4109L25.6491 13.3919C25.0245 12.686 24.3809 11.8657 23.6237 10.8356C23.1884 10.2442 22.7719 9.65278 22.3366 9.04232C22.1094 8.73709 21.9012 8.41278 21.674 8.10755C21.3144 7.61155 20.9926 7.1537 20.6897 6.75309L20.614 6.6577C20.2922 6.23801 19.9894 5.8374 19.6676 5.43678C18.9104 4.50201 18.2101 3.73893 17.4908 3.09032C16.7147 2.38447 15.9197 1.81216 15.1246 1.39247C14.3486 0.991856 13.5535 0.743856 12.8153 0.667548C12.6071 0.648471 12.4178 0.629395 12.2096 0.629395C12.3989 0.705702 12.5882 0.78201 12.7775 0.877395C13.4021 1.18263 14.0268 1.62139 14.6325 2.17463C14.6893 2.21278 14.7271 2.27001 14.7839 2.32724C15.0868 2.55616 15.3897 2.80416 15.6925 3.09032C16.3929 3.73893 17.1122 4.50201 17.8693 5.43678C18.1911 5.8374 18.494 6.23801 18.8158 6.6577L18.8915 6.75309C19.1944 7.1537 19.5162 7.59247 19.8758 8.10755C20.1029 8.43186 20.3301 8.73709 20.5383 9.04232C20.9737 9.65278 21.3901 10.2442 21.8255 10.8356C22.5826 11.8657 23.2262 12.6669 23.8509 13.3919L23.8698 13.4109C24.2105 13.7734 24.5702 14.174 24.9298 14.5174C25.3841 14.9371 25.7248 15.2614 26.0655 15.5285C26.7848 16.1199 27.5988 16.654 28.4506 17.1119C29.2077 17.5125 30.0217 17.8368 30.8924 18.0848C31.6496 18.3137 32.4067 18.4854 33.145 18.5808C33.3342 18.6189 33.5235 18.638 33.7318 18.6571C33.5425 18.6952 33.3532 18.7525 33.1639 18.7906C32.7475 18.8669 32.331 18.9242 31.8767 18.9623C32.1039 18.9814 32.331 19.0005 32.5582 19.0005H32.7475C33.5235 19.0005 34.2618 18.9242 34.9432 18.7906C35.1514 18.7525 35.3407 18.6952 35.53 18.6571Z" fill="white"/>
<path d="M38.388 20.986H19.3644L14.1211 6.3349C13.8372 5.53367 13.08 4.99951 12.2472 4.99951H2.61236C1.51448 4.99951 0.605896 5.89613 0.605896 7.02167C0.605896 7.26967 0.643754 7.49859 0.738398 7.72751C1.07912 7.44136 1.51448 7.28874 1.98771 7.28874H11.6036C12.4365 7.28874 13.1936 7.8229 13.4775 8.62413L18.683 23.1798C19.2319 22.9318 19.8377 22.7983 20.4623 22.7983C21.2005 22.7983 21.882 22.97 22.4877 23.2943H32.9743C33.58 22.989 34.2804 22.7983 34.9997 22.7983C35.7379 22.7983 36.4194 22.97 37.0251 23.2943H37.7255C38.5773 23.2943 39.3155 23.8475 39.5994 24.5915C40.0537 24.229 40.3377 23.6567 40.3377 23.0272C40.3944 21.9017 39.4859 20.986 38.388 20.986Z" fill="white"/>
</svg>
